<?xml version="1.0" encoding="UTF-8" standalone="no"?>
<!DOCTYPE svg PUBLIC "-//W3C//DTD SVG 20010904//EN"
              "http://www.w3.org/TR/2001/REC-SVG-20010904/DTD/svg10.dtd">

<svg xmlns="http://www.w3.org/2000/svg"
     width="0.266667in" height="0.266667in"
     viewBox="0 0 24 24">
  <path id="Zaimportowana ścieżka"
        fill="white" stroke="black" stroke-width="1"
        d="M 19.40,15.00
           C 19.31,15.20 19.26,15.43 19.26,15.67
             19.26,16.12 19.44,16.52 19.73,16.82
             19.73,16.82 19.85,16.82 19.85,16.82
             20.21,17.18 20.44,17.68 20.44,18.23
             20.44,18.79 20.21,19.29 19.85,19.65
             19.49,20.01 18.99,20.24 18.44,20.24
             17.88,20.24 17.38,20.01 17.02,19.65
             17.02,19.65 16.96,19.59 16.96,19.59
             16.66,19.30 16.26,19.12 15.81,19.12
             15.57,19.12 15.34,19.17 15.14,19.26
             14.55,19.51 14.14,20.09 14.14,20.77
             14.14,20.77 14.14,21.00 14.14,21.00
             14.14,22.10 13.24,23.00 12.14,23.00
             11.04,23.00 10.14,22.10 10.14,21.00
             10.14,21.00 10.14,20.91 10.14,20.91
             10.11,20.20 9.64,19.61 9.00,19.40
             8.71,19.15 8.34,19.00 7.93,19.00
             7.51,19.00 7.14,19.15 6.85,19.40
             6.85,19.40 6.73,19.40 6.73,19.40
             6.37,19.76 5.87,19.99 5.31,19.99
             4.76,19.99 4.26,19.76 3.90,19.40
             3.54,19.04 3.31,18.54 3.31,17.99
             3.31,17.43 3.54,16.93 3.90,16.57
             3.90,16.57 3.84,16.51 3.84,16.51
             4.13,16.21 4.31,15.81 4.31,15.36
             4.31,15.12 4.26,14.89 4.17,14.69
             3.92,14.10 3.34,13.69 2.66,13.69
             2.66,13.69 3.00,13.69 3.00,13.69
             1.90,13.69 1.00,12.79 1.00,11.69
             1.00,10.59 1.90,9.69 3.00,9.69
             3.00,9.69 2.91,9.69 2.91,9.69
             3.01,9.71 3.12,9.72 3.24,9.72
             3.80,9.72 4.30,9.44 4.60,9.00
             4.69,8.80 4.74,8.57 4.74,8.33
             4.74,7.88 4.56,7.48 4.27,7.18
             4.27,7.18 4.21,7.12 4.21,7.12
             3.85,6.76 3.62,6.26 3.62,5.71
             3.62,5.15 3.85,4.65 4.21,4.29
             4.57,3.93 5.07,3.70 5.62,3.70
             6.18,3.70 6.68,3.93 7.04,4.29
             7.04,4.29 7.16,4.29 7.16,4.29
             7.45,4.54 7.82,4.69 8.23,4.69
             8.65,4.69 9.02,4.54 9.31,4.29
             9.31,4.29 9.00,4.29 9.00,4.29
             9.59,4.04 10.00,3.46 10.00,2.78
             10.00,2.78 10.00,3.00 10.00,3.00
             10.00,1.90 10.90,1.00 12.00,1.00
             13.10,1.00 14.00,1.90 14.00,3.00
             14.00,3.00 14.00,3.09 14.00,3.09
             14.00,3.77 14.41,4.35 15.00,4.60
             15.20,4.69 15.43,4.74 15.67,4.74
             16.12,4.74 16.52,4.56 16.82,4.27
             16.82,4.27 16.76,4.21 16.76,4.21
             17.12,3.85 17.62,3.62 18.18,3.62
             18.73,3.62 19.23,3.85 19.59,4.21
             19.95,4.57 20.18,5.07 20.18,5.62
             20.18,6.18 19.95,6.68 19.59,7.04
             19.59,7.04 19.47,7.04 19.47,7.04
             19.18,7.34 19.00,7.74 19.00,8.19
             19.00,8.43 19.05,8.66 19.14,8.86
             19.14,8.86 19.14,9.00 19.14,9.00
             19.39,9.59 19.97,10.00 20.65,10.00
             20.65,10.00 21.00,10.00 21.00,10.00
             22.10,10.00 23.00,10.90 23.00,12.00
             23.00,13.10 22.10,14.00 21.00,14.00
             21.00,14.00 20.91,14.00 20.91,14.00
             20.23,14.00 19.65,14.41 19.40,15.00
             19.40,15.00 19.40,15.00 19.40,15.00 Z
           M 15.00,12.00
           C 15.00,13.66 13.66,15.00 12.00,15.00
             10.34,15.00 9.00,13.66 9.00,12.00
             9.00,10.34 10.34,9.00 12.00,9.00
             13.66,9.00 15.00,12.00 15.00,12.00 Z" />
</svg>
