<?xml version="1.0" encoding="UTF-8" standalone="no"?>
<!DOCTYPE svg PUBLIC "-//W3C//DTD SVG 20010904//EN"
              "http://www.w3.org/TR/2001/REC-SVG-20010904/DTD/svg10.dtd">

<svg xmlns="http://www.w3.org/2000/svg"
     width="0.266667in" height="0.266667in"
     viewBox="0 0 24 24">
  <path id="Zaimportowana ścieżka"
        fill="white" stroke="black" stroke-width="1"
        d="M 15.00,2.00
           C 15.55,2.00 16.00,2.45 16.00,3.00
             16.00,3.00 16.00,5.00 16.00,5.00
             16.00,5.55 15.55,6.00 15.00,6.00
             15.00,6.00 9.00,6.00 9.00,6.00
             8.45,6.00 8.00,5.55 8.00,5.00
             8.00,5.00 8.00,3.00 8.00,3.00
             8.00,2.45 8.45,2.00 9.00,2.00
             9.00,2.00 15.00,2.00 15.00,2.00 Z
           M 16.00,4.00
           C 16.00,4.00 18.00,4.00 18.00,4.00
             19.10,4.00 20.00,4.90 20.00,6.00
             20.00,6.00 20.00,20.00 20.00,20.00
             20.00,21.10 19.10,22.00 18.00,22.00
             18.00,22.00 6.00,22.00 6.00,22.00
             4.90,22.00 4.00,21.10 4.00,20.00
             4.00,20.00 4.00,6.00 4.00,6.00
             4.00,4.90 4.90,4.00 6.00,4.00
             6.00,4.00 8.00,4.00 8.00,4.00" />
</svg>
